<svg width="48" height="54" viewBox="0 0 48 54" fill="none" xmlns="http://www.w3.org/2000/svg">
<path d="M3.03532 2.77118C3.79636 2.01153 4.9062 1.37849 6.14289 0.967021C7.91865 0.397288 9.09192 0.365636 24.3761 0.333984C37.8211 0.333984 40.9921 0.397288 42.2922 0.77711C43.1801 1.06198 44.4485 1.72666 45.1461 2.32805C45.8754 2.92943 46.7633 4.1322 47.2073 5.11341C47.9366 6.66435 48 7.20243 48 10.9373C48 14.5457 47.9049 15.2736 47.2073 16.9512C46.7633 18.0907 45.9389 19.3567 45.1461 20.1164C44.4485 20.8127 43.1484 21.6357 42.2922 21.9522C41.4043 22.2687 39.5969 22.6169 35.7917 22.965V25.0224C35.7917 26.1619 35.5697 27.9344 35.316 28.9789C35.0306 30.0234 34.4282 31.4477 33.9525 32.1124C33.4769 32.8088 32.4621 33.7583 31.6694 34.2647C30.8766 34.7712 29.4497 35.4042 28.4984 35.6891C27.5471 35.9739 25.8348 36.2905 22.6321 36.5753L22.4418 41.6396C22.315 45.1213 22.093 47.147 21.7125 48.1282C21.4271 48.9195 20.7295 50.0907 20.1904 50.787C19.6196 51.4517 18.3512 52.3696 17.3999 52.8444C15.7827 53.604 15.3388 53.6673 11.375 53.6673C7.34787 53.6673 6.96735 53.604 5.28673 52.7811C4.01833 52.1797 3.09874 51.4517 2.30599 50.4388C1.7035 49.5842 0.942462 48.2232 0.657073 47.3369C0.213134 45.9443 0.118004 43.5071 0.0228741 27.8711C-0.0405457 15.147 0.0228751 9.44971 0.276555 8.08868C0.498524 7.04417 0.910753 5.68314 1.22785 5.08176C1.54495 4.48037 2.36941 3.43586 3.03532 2.77118Z" fill="url(#paint0_linear_665_796)" fill-opacity="0.81"/>
<path fill-rule="evenodd" clip-rule="evenodd" d="M24.2554 5.71387C36.5906 5.71387 40.6811 5.80882 41.2836 6.12534C41.7276 6.31525 42.2666 6.91664 42.4886 7.45472C42.6789 7.9928 42.8691 9.60704 42.8374 11.0947C42.8374 13.2153 42.6789 14.0699 42.1398 15.1461C41.7276 15.8741 41.0299 16.6971 40.4909 16.9503C39.8567 17.2668 38.8102 17.3934 35.3856 17.2668L34.5928 15.3677C34.1806 14.3232 33.4513 12.9938 33.039 12.4241C32.5951 11.886 31.4853 11.063 30.5657 10.6199C29.6778 10.1768 27.9972 9.67035 26.8556 9.48043C25.7141 9.29052 24.0651 9.22722 23.209 9.32218C22.2577 9.44878 21.021 9.89191 20.1014 10.4616C19.1501 11.063 18.3573 11.886 17.9134 12.7722C17.4378 13.6901 17.2158 14.6397 17.2158 15.8425C17.2475 16.792 17.4695 17.9948 17.7549 18.5329C18.0085 19.0709 18.6427 19.8622 19.1501 20.3054C19.6257 20.7801 20.6722 21.4765 21.4649 21.8563C22.6382 22.4577 23.6212 22.6159 30.7559 22.9641L30.5657 25.4963C30.4388 27.2371 30.1852 28.2816 29.7729 28.8197C29.4558 29.2628 28.5045 29.9592 27.6166 30.4023C26.2531 31.067 25.5238 31.1936 17.1841 31.5101L17.0255 38.79C16.8987 45.0254 16.7719 46.2282 16.2962 46.9562C16.0108 47.431 15.44 47.9691 15.0278 48.1906C14.6473 48.3805 12.9667 48.5704 11.2543 48.5704C8.6224 48.6021 8.05162 48.5071 7.29058 47.9374C6.81493 47.5892 6.21244 46.8612 5.95877 46.3548C5.70509 45.8484 5.38799 44.3607 5.22944 43.063C5.07089 41.7653 5.00747 33.5675 5.03918 24.8632C5.13431 11.7277 5.22944 8.8474 5.60996 7.92949C5.86364 7.35976 6.49783 6.60012 7.0369 6.2836C7.92478 5.74552 9.16147 5.71387 24.2237 5.71387H24.2554ZM25.0164 14.5764C25.8726 14.5764 27.0459 14.7663 27.5849 14.9879C28.1557 15.2094 28.885 15.7475 29.2021 16.1906C29.4875 16.6021 29.7412 17.0452 29.7412 17.2035C29.7412 17.3301 28.5362 17.425 27.0459 17.425C25.5555 17.425 24.0334 17.2668 23.6212 17.0769C23.2407 16.8553 22.8284 16.5388 22.7016 16.3489C22.5748 16.159 22.4479 15.9058 22.4162 15.7791C22.4162 15.6525 22.6382 15.336 22.9236 15.0828C23.2407 14.7663 24.0334 14.5764 25.0164 14.5764Z" fill="#FEFEFE"/>
<defs>
<linearGradient id="paint0_linear_665_796" x1="48" y1="-14.3065" x2="-24.2685" y2="35.4928" gradientUnits="userSpaceOnUse">
<stop offset="0.136676" stop-color="#8700FF" stop-opacity="0.671875"/>
<stop offset="0.296454" stop-color="#2D53DA"/>
<stop offset="0.768579" stop-color="#1CCEF4"/>
<stop offset="1" stop-color="#8700FF" stop-opacity="0"/>
</linearGradient>
</defs>
</svg>
