<svg width="172" height="54" viewBox="0 0 172 54" fill="none" xmlns="http://www.w3.org/2000/svg">
<path d="M3.03532 2.77118C3.79636 2.01153 4.9062 1.37849 6.14289 0.967021C7.91865 0.397288 9.09192 0.365636 24.3761 0.333984C37.8211 0.333984 40.9921 0.397288 42.2922 0.77711C43.1801 1.06198 44.4485 1.72666 45.1461 2.32805C45.8754 2.92943 46.7633 4.1322 47.2073 5.11341C47.9366 6.66435 48 7.20243 48 10.9373C48 14.5457 47.9049 15.2736 47.2073 16.9512C46.7633 18.0907 45.9389 19.3567 45.1461 20.1164C44.4485 20.8127 43.1484 21.6357 42.2922 21.9522C41.4043 22.2687 39.5969 22.6169 35.7917 22.965V25.0224C35.7917 26.1619 35.5697 27.9344 35.316 28.9789C35.0306 30.0234 34.4282 31.4477 33.9525 32.1124C33.4769 32.8088 32.4621 33.7583 31.6694 34.2647C30.8766 34.7712 29.4497 35.4042 28.4984 35.6891C27.5471 35.9739 25.8348 36.2905 22.6321 36.5753L22.4418 41.6396C22.315 45.1213 22.093 47.147 21.7125 48.1282C21.4271 48.9195 20.7295 50.0907 20.1904 50.787C19.6196 51.4517 18.3512 52.3696 17.3999 52.8444C15.7827 53.604 15.3388 53.6673 11.375 53.6673C7.34787 53.6673 6.96735 53.604 5.28673 52.7811C4.01833 52.1797 3.09874 51.4517 2.30599 50.4388C1.7035 49.5842 0.942462 48.2232 0.657073 47.3369C0.213134 45.9443 0.118004 43.5071 0.0228741 27.8711C-0.0405457 15.147 0.0228751 9.44971 0.276555 8.08868C0.498524 7.04417 0.910753 5.68314 1.22785 5.08176C1.54495 4.48037 2.36941 3.43586 3.03532 2.77118Z" fill="url(#paint0_linear_141_10135)"/>
<path fill-rule="evenodd" clip-rule="evenodd" d="M24.2554 5.71387C36.5906 5.71387 40.6811 5.80882 41.2836 6.12534C41.7276 6.31525 42.2666 6.91664 42.4886 7.45472C42.6789 7.9928 42.8691 9.60704 42.8374 11.0947C42.8374 13.2153 42.6789 14.0699 42.1398 15.1461C41.7276 15.8741 41.0299 16.6971 40.4909 16.9503C39.8567 17.2668 38.8102 17.3934 35.3856 17.2668L34.5928 15.3677C34.1806 14.3232 33.4513 12.9938 33.039 12.4241C32.5951 11.886 31.4853 11.063 30.5657 10.6199C29.6778 10.1768 27.9972 9.67035 26.8556 9.48043C25.7141 9.29052 24.0651 9.22722 23.209 9.32218C22.2577 9.44878 21.021 9.89191 20.1014 10.4616C19.1501 11.063 18.3573 11.886 17.9134 12.7722C17.4378 13.6901 17.2158 14.6397 17.2158 15.8425C17.2475 16.792 17.4695 17.9948 17.7549 18.5329C18.0085 19.0709 18.6427 19.8622 19.1501 20.3054C19.6257 20.7801 20.6722 21.4765 21.4649 21.8563C22.6382 22.4577 23.6212 22.6159 30.7559 22.9641L30.5657 25.4963C30.4388 27.2371 30.1852 28.2816 29.7729 28.8197C29.4558 29.2628 28.5045 29.9592 27.6166 30.4023C26.2531 31.067 25.5238 31.1936 17.1841 31.5101L17.0255 38.79C16.8987 45.0254 16.7719 46.2282 16.2962 46.9562C16.0108 47.431 15.44 47.9691 15.0278 48.1906C14.6473 48.3805 12.9667 48.5704 11.2543 48.5704C8.6224 48.6021 8.05162 48.5071 7.29058 47.9374C6.81493 47.5892 6.21244 46.8612 5.95877 46.3548C5.70509 45.8484 5.38799 44.3607 5.22944 43.063C5.07089 41.7653 5.00747 33.5675 5.03918 24.8632C5.13431 11.7277 5.22944 8.8474 5.60996 7.92949C5.86364 7.35976 6.49783 6.60012 7.0369 6.2836C7.92478 5.74552 9.16147 5.71387 24.2237 5.71387H24.2554ZM25.0164 14.5764C25.8726 14.5764 27.0459 14.7663 27.5849 14.9879C28.1557 15.2094 28.885 15.7475 29.2021 16.1906C29.4875 16.6021 29.7412 17.0452 29.7412 17.2035C29.7412 17.3301 28.5362 17.425 27.0459 17.425C25.5555 17.425 24.0334 17.2668 23.6212 17.0769C23.2407 16.8553 22.8284 16.5388 22.7016 16.3489C22.5748 16.159 22.4479 15.9058 22.4162 15.7791C22.4162 15.6525 22.6382 15.336 22.9236 15.0828C23.2407 14.7663 24.0334 14.5764 25.0164 14.5764Z" fill="#FEFEFE"/>
<path d="M62.3359 9.47266H89.6406V14.9023H68.5273V22.8906H86.457V27.9883H68.5273V40H62.3359V9.47266ZM97.6484 42.8906C98.2474 43.2812 98.8984 43.6263 99.6016 43.9258C100.305 44.2253 101.034 44.4727 101.789 44.668C102.557 44.8633 103.339 45.0065 104.133 45.0977C104.927 45.2018 105.715 45.2539 106.496 45.2539C109.152 45.2539 111.197 44.681 112.629 43.5352C114.074 42.4023 114.797 40.6966 114.797 38.418V37.6367C114.289 37.9883 113.716 38.3138 113.078 38.6133C112.453 38.8997 111.776 39.1471 111.047 39.3555C110.331 39.5638 109.569 39.7266 108.762 39.8438C107.967 39.9479 107.16 40 106.34 40C104.582 40 103.007 39.7461 101.613 39.2383C100.233 38.7174 99.0612 37.9622 98.0977 36.9727C97.1471 35.9701 96.418 34.7396 95.9102 33.2812C95.4023 31.8229 95.1484 30.1562 95.1484 28.2812V16.9531H100.91V26.6797C100.91 29.4661 101.438 31.5234 102.492 32.8516C103.56 34.1667 105.24 34.8242 107.531 34.8242C109.146 34.8242 110.572 34.5443 111.809 33.9844C113.059 33.4115 114.055 32.6823 114.797 31.7969V16.9531H120.578V37.3633C120.578 39.5638 120.266 41.4714 119.641 43.0859C119.016 44.7135 118.104 46.0612 116.906 47.1289C115.721 48.1966 114.263 48.9909 112.531 49.5117C110.799 50.0456 108.833 50.3125 106.633 50.3125C104.484 50.3125 102.479 50.0846 100.617 49.6289C98.7552 49.1732 97.0495 48.5547 95.5 47.7734L97.6484 42.8906ZM133.684 49.4141H127.902V16.9531H133.684V19.1211C134.191 18.7695 134.79 18.4375 135.48 18.125C136.171 17.8125 136.913 17.5391 137.707 17.3047C138.501 17.0703 139.322 16.888 140.168 16.7578C141.014 16.6146 141.861 16.543 142.707 16.543C144.66 16.543 146.451 16.8294 148.078 17.4023C149.719 17.9753 151.125 18.7826 152.297 19.8242C153.469 20.8659 154.38 22.1159 155.031 23.5742C155.695 25.0195 156.027 26.6211 156.027 28.3789C156.027 30.2148 155.682 31.875 154.992 33.3594C154.302 34.8307 153.345 36.0938 152.121 37.1484C150.91 38.1901 149.465 38.9974 147.785 39.5703C146.118 40.1302 144.309 40.4102 142.355 40.4102C141.522 40.4102 140.695 40.3581 139.875 40.2539C139.068 40.1497 138.286 40.0065 137.531 39.8242C136.789 39.6419 136.086 39.4271 135.422 39.1797C134.771 38.9193 134.191 38.6393 133.684 38.3398V49.4141ZM133.684 32.7539C134.27 33.2227 134.888 33.6198 135.539 33.9453C136.19 34.2708 136.854 34.5378 137.531 34.7461C138.208 34.9544 138.892 35.1107 139.582 35.2148C140.272 35.306 140.943 35.3516 141.594 35.3516C142.922 35.3516 144.1 35.1758 145.129 34.8242C146.171 34.4596 147.043 33.9648 147.746 33.3398C148.462 32.7148 149.009 31.9792 149.387 31.1328C149.764 30.2865 149.953 29.3685 149.953 28.3789C149.953 27.4544 149.764 26.582 149.387 25.7617C149.022 24.9414 148.488 24.2253 147.785 23.6133C147.095 22.9883 146.255 22.5 145.266 22.1484C144.289 21.7839 143.189 21.6016 141.965 21.6016C141.184 21.6016 140.402 21.6797 139.621 21.8359C138.84 21.9792 138.085 22.1875 137.355 22.4609C136.639 22.7344 135.962 23.0664 135.324 23.457C134.699 23.8477 134.152 24.2839 133.684 24.7656V32.7539ZM164.543 13.8086C163.97 13.8086 163.449 13.7305 162.98 13.5742C162.525 13.4049 162.134 13.1836 161.809 12.9102C161.483 12.6237 161.229 12.2982 161.047 11.9336C160.878 11.556 160.793 11.1589 160.793 10.7422C160.793 10.3125 160.878 9.91536 161.047 9.55078C161.229 9.17318 161.483 8.84766 161.809 8.57422C162.134 8.30078 162.525 8.08594 162.98 7.92969C163.449 7.76042 163.97 7.67578 164.543 7.67578C165.129 7.67578 165.65 7.76042 166.105 7.92969C166.574 8.08594 166.971 8.30078 167.297 8.57422C167.622 8.84766 167.87 9.17318 168.039 9.55078C168.221 9.91536 168.312 10.3125 168.312 10.7422C168.312 11.1589 168.221 11.556 168.039 11.9336C167.87 12.2982 167.622 12.6237 167.297 12.9102C166.971 13.1836 166.574 13.4049 166.105 13.5742C165.65 13.7305 165.129 13.8086 164.543 13.8086ZM161.652 16.9531H167.434V40H161.652V16.9531Z" fill="black"/>
<defs>
<linearGradient id="paint0_linear_141_10135" x1="48" y1="-14.3065" x2="-24.2685" y2="35.4928" gradientUnits="userSpaceOnUse">
<stop offset="0.136676" stop-color="#8700FF" stop-opacity="0.671875"/>
<stop offset="0.296454" stop-color="#2D53DA"/>
<stop offset="0.768579" stop-color="#1CCEF4"/>
<stop offset="1" stop-color="#8700FF" stop-opacity="0"/>
</linearGradient>
</defs>
</svg>
